# xmcd CD database file
#
# Track frame offsets:
#	150
#	23257
#	41709
#	54338
#	65920
#	85196
#	102730
#	114280
#	136444
#	154056
#	170682
#	187949
#	207340
#	226234
#	248939
#	266605
#	287335
#	304602
#	325261
#	338266
#
# Disc length: 4731 seconds
#
# Revision: 0
# Processed by: cddbd v1.5.1PL2 Copyright (c) Steve Scherf et al.
# Submitted via: CDex 1.51
#
DISCID=0f127914
DTITLE=Joe Cocker - Ultimate Collection
DYEAR=1900
DGENRE=Blues
TTITLE0=With A Little Help From My Friends
TTITLE1=Feelin' Alright
TTITLE2=Delta Lady
TTITLE3=She Came In Through The Bathroom Window
TTITLE4=The Letter
TTITLE5=Cry Me A River
TTITLE6=You Are So Beautiful
TTITLE7=I'm So Glad I'm Standing Here Today
TTITLE8=Sweet Little Woman
TTITLE9=Many Rivers To Cross
TTITLE10=Up Where We Belong
TTITLE11=Shelter Me
TTITLE12=You Can Leave Your Hat On
TTITLE13=Unchain My Heart
TTITLE14=When The Night Comes
TTITLE15=Now What The Magic Has Gone
TTITLE16=Summer In The City
TTITLE17=Have A Little Faith In Me
TTITLE18=Sail Away
TTITLE19=First We Take Manhattan
EXTD=
EXTT0=
EXTT1=
EXTT2=
EXTT3=
EXTT4=
EXTT5=
EXTT6=
EXTT7=
EXTT8=
EXTT9=
EXTT10=
EXTT11=
EXTT12=
EXTT13=
EXTT14=
EXTT15=
EXTT16=
EXTT17=
EXTT18=
EXTT19=
PLAYORDER=
